# xmcd
#
# Track frame offsets:
#	150
#	20227
#	30852
#	70481
#	89423
#	107089
#	135227
#	165611
#	202531
#	219756
#	236408
#	274461
#	293943
#
# Disc length: 4230 seconds
# Revision: 0
# Processed by: cddbd v1.5.2PL0 Copyright (c) Steve Scherf et al.
# Submitted via: dBpowerAMP V12.0
#
DISCID=b010840d
DTITLE=Torkil Damhaug - Die Bärenkralle CD2
DYEAR=2009
DGENRE=Hörbuch
TTITLE0=201
TTITLE1=202
TTITLE2=203
TTITLE3=204
TTITLE4=205
TTITLE5=206
TTITLE6=207
TTITLE7=208
TTITLE8=209
TTITLE9=210
TTITLE10=211
TTITLE11=212
TTITLE12=213
EXTD=
EXTT0=
EXTT1=
EXTT2=
EXTT3=
EXTT4=
EXTT5=
EXTT6=
EXTT7=
EXTT8=
EXTT9=
EXTT10=
EXTT11=
EXTT12=
PLAYORDER=
